<?xml version="1.0" encoding="UTF-8" standalone="no"?>
<svg
   xmlns:dc="http://purl.org/dc/elements/1.1/"
   xmlns:cc="http://creativecommons.org/ns#"
   xmlns:rdf="http://www.w3.org/1999/02/22-rdf-syntax-ns#"
   xmlns:svg="http://www.w3.org/2000/svg"
   xmlns="http://www.w3.org/2000/svg"
   xmlns:sodipodi="http://sodipodi.sourceforge.net/DTD/sodipodi-0.dtd"
   xmlns:inkscape="http://www.inkscape.org/namespaces/inkscape"
   height="347.21036"
   id="Layer_1"
   version="1.1"
   viewBox="0 0 385 347.21036"
   width="385"
   xml:space="preserve"
   sodipodi:docname="favourite.svg"
   inkscape:version="0.92.4 (5da689c313, 2019-01-14)"><metadata
     id="metadata9"><rdf:RDF><cc:Work
         rdf:about=""><dc:format>image/svg+xml</dc:format><dc:type
           rdf:resource="http://purl.org/dc/dcmitype/StillImage" /><dc:title /></cc:Work></rdf:RDF></metadata><defs
     id="defs7" /><sodipodi:namedview
     pagecolor="#ffffff"
     bordercolor="#666666"
     borderopacity="1"
     objecttolerance="10"
     gridtolerance="10"
     guidetolerance="10"
     inkscape:pageopacity="0"
     inkscape:pageshadow="2"
     inkscape:window-width="2560"
     inkscape:window-height="1017"
     id="namedview5"
     showgrid="false"
     fit-margin-top="0"
     fit-margin-left="0"
     fit-margin-right="0"
     fit-margin-bottom="0"
     inkscape:zoom="0.4609375"
     inkscape:cx="-207.77119"
     inkscape:cy="173.71036"
     inkscape:window-x="-8"
     inkscape:window-y="107"
     inkscape:window-maximized="1"
     inkscape:current-layer="Layer_1" /><path
     d="m 277.3,15.9 c 50.7,0 91.9,41.3 91.9,92.3 0,26.2 -10.9,49.8 -28.3,66.6 L 192.5,324.6 41.5,172.1 C 25.7,155.5 15.9,133 15.9,108.2 c 0,-51 41.1,-92.3 91.9,-92.3 38.2,0 70.9,23.4 84.8,56.8 13.7,-33.3 46.5,-56.8 84.7,-56.8 m 0,-15.4 c -33.8,0 -64.8,15.8 -84.8,41.8 -20,-26 -51,-41.8 -84.8,-41.8 C 48.6,0.5 0.5,48.8 0.5,108.2 c 0,27.9 10.6,54.4 29.9,74.6 l 151.2,152.7 10.9,11 10.9,-11 148.3,-149.8 c 21,-20.3 32.8,-47.9 32.8,-77.5 C 384.5,48.8 336.4,0.5 277.3,0.5 Z"
     id="path2"
     style="fill:#e89ac7;fill-opacity:1;stroke:#e89ac7;stroke-opacity:1"
     inkscape:connector-curvature="0" /><path
     style="opacity:1;fill:#e89ac7;fill-opacity:1;fill-rule:nonzero;stroke:none;stroke-width:3.25423717;stroke-miterlimit:4;stroke-dasharray:none;stroke-dashoffset:0;stroke-opacity:1;paint-order:fill markers stroke"
     d="M 113.33886,242.76019 C 41.996298,171.15263 33.059465,161.40573 27.143274,148.75153 9.9657647,112.01038 16.631361,72.06842 44.621919,44.015009 84.857228,3.6893509 150.97029,10.127727 182.52346,57.444459 c 4.45142,6.675291 8.72886,12.934339 9.50542,13.908994 0.77656,0.974655 4.35698,-3.446242 7.95648,-9.824213 17.2353,-30.539265 55.09692,-48.761833 89.66736,-43.156352 36.44073,5.908743 63.04629,28.738014 73.81501,63.337997 7.61583,24.469705 3.88448,53.833135 -9.53517,75.035785 -3.15511,4.98499 -40.67055,44.35276 -83.36762,87.48394 l -77.63104,78.4203 z"
     id="path812"
     inkscape:connector-curvature="0" /><path
     style="opacity:1;fill:#e89ac7;fill-opacity:1;fill-rule:nonzero;stroke:none;stroke-width:3.25423717;stroke-miterlimit:4;stroke-dasharray:none;stroke-dashoffset:0;stroke-opacity:1;paint-order:fill markers stroke"
     d="M 107.02608,259.8847 C 39.286454,191.35646 19.952303,170.54672 14.474792,160.26986 -24.377208,87.376042 26.852451,1.2423705 109.05945,1.2423705 c 26.15919,0 54.79497,11.8625285 72.82557,30.1683805 l 10.24798,10.404435 11.62567,-11.1704 c 40.4854,-38.8999846 104.97455,-39.219636 145.68003,-0.722089 23.00659,21.758668 33.77594,46.594395 33.8174,77.987973 0.0295,22.23643 -4.30056,37.89132 -15.49692,56.02886 -4.95731,8.03063 -38.09123,43.39005 -91.44009,97.58182 l -83.66566,84.98757 z M 358.85255,150.27771 c 9.48346,-19.26366 12.37641,-37.07176 9.11345,-56.099816 -5.34025,-31.141985 -24.29585,-56.647391 -51.77233,-69.661437 -13.87201,-6.570382 -16.25913,-7.0029 -38.6496,-7.0029 -21.55572,0 -25.10902,0.582868 -36.72978,6.024993 -7.07597,3.313744 -17.12308,9.513858 -22.32695,13.778028 -9.08375,7.443454 -24.4687,27.693846 -24.4687,32.206857 0,1.19322 3.32826,-2.772691 7.39614,-8.813137 10.46075,-15.533329 27.61332,-30.200294 42.06473,-35.969091 9.92857,-3.963342 16.651,-4.948583 34.06456,-4.992517 19.93938,-0.05031 22.8752,0.503955 36.28112,6.849598 37.36969,17.688827 56.94705,54.510435 51.22562,96.346472 -3.54048,25.88849 -6.39646,29.53492 -92.37437,117.94097 L 192.9339,322.88027 121.69358,250.46811 C 82.511407,210.64141 45.750154,172.50342 40.001911,165.71702 24.910787,147.90037 19.676945,133.04347 19.50974,107.54746 19.386526,88.759563 19.981591,85.656012 26.239978,72.445931 48.871538,24.675669 101.28395,5.3703736 147.0016,27.965262 c 15.06775,7.446886 24.36637,15.568335 37.84376,33.052861 l 4.9284,6.393739 -3.30603,-6.952281 C 181.09774,49.166987 162.66658,32.473132 147.11721,24.818198 119.75636,11.348499 81.583047,14.189739 56.311749,31.57685 42.863064,40.829787 31.620709,54.342739 24.013398,70.398432 17.66547,83.796122 17.205085,86.381531 17.205085,108.6322 c 0,22.68514 0.363045,24.61485 7.346801,39.05085 6.679736,13.80756 14.657546,22.54143 87.864404,96.19133 l 80.51761,81.00488 79.65056,-80.57973 c 67.55499,-68.34303 80.65551,-82.621 86.26809,-94.02182 z"
     id="path814"
     inkscape:connector-curvature="0" /><path
     style="opacity:1;fill:#e89ac7;fill-opacity:1;fill-rule:nonzero;stroke:none;stroke-width:3.25423717;stroke-miterlimit:4;stroke-dasharray:none;stroke-dashoffset:0;stroke-opacity:1;paint-order:fill markers stroke"
     d="M 107.13541,260.06781 C 15.693033,167.86664 11.638854,162.92138 4.2558068,134.57595 -2.143946,110.00564 1.1447299,82.578252 13.477167,57.670288 20.678532,43.125609 41.603761,21.756221 56.447036,13.788343 96.660508,-7.7982701 147.30972,-1.2009193 180.20312,29.908283 l 11.49234,10.868979 12.12775,-10.809292 c 22.259,-19.83912 45.08429,-28.7255995 73.78291,-28.7255995 35.50856,0 70.30467,19.2496635 89.84779,49.7049905 19.60199,30.547031 21.65771,69.865079 5.4446,104.133599 -8.19241,17.31574 -10.19773,19.48398 -131.20854,141.8682 l -48.91435,49.46953 z M 272.6467,243.63814 c 43.48284,-44.47217 80.3494,-83.27895 81.92571,-86.2373 1.57631,-2.95834 -2.41313,0.47882 -8.86541,7.63814 -12.24427,13.58599 -135.63007,140.85144 -146.80741,151.4235 l -6.41495,6.06759 -73.32821,-74.40657 C 78.825921,207.1999 42.143672,169.08169 37.640326,163.41639 24.623522,147.04096 19.66861,131.77252 19.50974,107.54746 19.386758,88.794937 19.988228,85.642136 26.18289,72.567923 37.040023,49.653281 55.977376,31.57821 77.384645,23.697558 82.468937,21.825879 94.927119,19.568529 105.06949,18.681224 l 18.44068,-1.61328 -14.41554,-0.319567 C 80.113457,16.105918 51.879057,30.017847 34.64123,53.433776 21.138444,71.776009 17.187929,84.649819 17.285475,109.99212 c 0.07582,19.69912 0.544393,21.82419 8.249887,37.4152 7.570111,15.31708 13.989712,22.41987 87.497788,96.80958 43.63056,44.15383 79.60404,80.27971 79.94107,80.27971 0.33703,0 36.18964,-36.38632 79.67248,-80.85847 z m 88.0038,-98.18199 c -0.66797,-0.66796 -1.88106,0.53611 -2.69577,2.67571 -1.17734,3.09195 -0.92815,3.34115 1.21448,1.21447 1.48268,-1.47164 2.14925,-3.22222 1.48129,-3.89018 z m 6.96096,-22.92081 c 2.9135,-17.27323 0.20689,-36.142204 -7.68336,-53.564095 -10.1315,-22.370634 -38.56414,-45.923862 -59.60437,-49.375504 -6.13298,-1.006112 -5.5017,-0.484949 3.28257,2.710032 49.90815,18.152394 73.06633,64.229584 58.48539,116.366847 -1.00794,3.60414 -0.80434,3.94085 0.8911,1.47374 1.20866,-1.75874 3.29155,-9.6837 4.62867,-17.61102 z M 212.45932,47.369351 c 5.9661,-6.560128 15.72882,-14.731869 21.69492,-18.159425 5.9661,-3.427558 9.73837,-6.241085 8.3828,-6.252282 -1.35554,-0.01128 -8.22098,3.823582 -15.25651,8.52173 -12.43885,8.306339 -21.79614,18.285634 -29.62432,31.593505 -3.70202,6.293424 -3.69992,6.338567 0.0636,1.366226 2.14065,-2.828235 8.77345,-10.509624 14.73955,-17.069754 z m -29.0465,8.561809 c -7.01587,-13.109282 -43.32139,-37.455322 -55.56367,-37.260321 -2.38644,0.03801 0.55512,1.761455 6.5368,3.829871 16.80733,5.81184 30.37637,14.679873 40.56566,26.511642 9.99881,11.610598 11.72963,13.025905 8.46121,6.918808 z M 261.0921,19.371422 c 2.15161,-1.840196 -9.89512,-0.501369 -12.83617,1.426561 -2.28951,1.500841 -1.00321,1.720183 4.33899,0.739898 4.17627,-0.766336 8,-1.741243 8.49718,-2.166459 z m 22.41807,-2.34252 c -3.87797,-0.481251 -10.22373,-0.481251 -14.1017,0 -3.87796,0.481251 -0.70508,0.875003 7.05085,0.875003 7.75593,0 10.92882,-0.393752 7.05085,-0.875003 z"
     id="path816"
     inkscape:connector-curvature="0" /><path
     style="opacity:1;fill:#e89ac7;fill-opacity:1;fill-rule:nonzero;stroke:none;stroke-width:3.25423717;stroke-miterlimit:4;stroke-dasharray:none;stroke-dashoffset:0;stroke-opacity:1;paint-order:fill markers stroke"
     d="M 107.09799,260.02884 C 15.630276,167.84197 11.658561,162.99704 4.2558068,134.57595 -13.197726,67.56731 37.946222,1.1610254 106.92513,1.26812 c 28.99417,0.045016 52.98604,9.448889 73.42592,28.780076 l 11.64028,11.008891 9.14925,-8.853543 C 224.08459,10.001083 250.0721,0.15118443 281.47727,1.7539731 c 22.35952,1.1411354 36.31607,5.3301335 52.72018,15.8237299 35.97731,23.014395 55.53005,66.04381 48.62171,107.001027 -5.17833,30.70067 -11.73469,40.17915 -68.12168,98.48319 -27.99002,28.94163 -66.88167,68.51912 -86.42593,87.94997 l -35.53498,35.32887 z m 88.22519,61.7559 c 0.85833,-1.49152 0.71631,-1.94273 -0.31561,-1.00267 -1.03192,0.94004 -25.35116,-21.5142 -54.04274,-49.89831 l -52.166525,-51.60749 52.050845,52.61017 c 28.62797,28.93559 52.24493,52.61017 52.48213,52.61017 0.23721,0 1.13356,-1.22034 1.9919,-2.71187 z m 21.47513,-21.15254 c 9.48976,-9.54576 16.766,-17.35593 16.16939,-17.35593 -0.59661,0 -8.84912,7.81017 -18.33889,17.35593 -9.48977,9.54576 -16.766,17.35593 -16.16939,17.35593 0.59661,0 8.84911,-7.81017 18.33889,-17.35593 z m 23.0564,-23.32203 c 2.69856,-3.44095 2.62183,-3.51768 -0.81912,-0.81912 -2.08813,1.63764 -3.79661,3.34612 -3.79661,3.79661 0,1.78558 1.78157,0.63634 4.61573,-2.97749 z m 100.0661,-103.59322 c 15.52608,-17.78959 10.87638,-13.23673 -29.91119,29.28813 -26.55395,27.68497 -27.36438,28.72572 -6.75771,8.67797 12.87813,-12.52882 29.37913,-29.61356 36.6689,-37.9661 z m -286.986656,5.9661 C 29.380017,155.10622 29.934574,155.64645 33.447482,160.7 c 3.595973,5.17304 35.296913,37.9661 36.701705,37.9661 0.537953,0 -7.208811,-8.54237 -17.215033,-18.98305 z M 27.628617,147.71029 c -1.984379,-4.16129 -3.993114,-7.18083 -4.463852,-6.71008 -0.992458,0.99245 5.593378,14.27606 7.077883,14.27606 0.546662,0 -0.629651,-3.40469 -2.614031,-7.56598 z M 20.711382,127.9427 c -1.092133,-4.65467 -2.070432,-6.5105 -2.173999,-4.12406 -0.223922,5.15971 2.115,14.6318 3.316349,13.43045 0.46384,-0.46384 -0.05022,-4.65171 -1.14235,-9.30639 z m 346.200528,-8.96412 c -0.55005,-2.11085 -1.03628,-0.90909 -1.08049,2.67057 -0.0443,3.57966 0.40582,5.30672 1.00011,3.8379 0.59427,-1.46882 0.63043,-4.39763 0.0805,-6.50847 z m -1.4648,-33.209572 -2.33053,-5.340197 1.11633,5.423729 c 0.61397,2.983051 1.27593,7.864407 1.47101,10.847458 l 0.35466,5.423732 0.85954,-5.507264 c 0.47273,-3.028992 -0.18918,-7.910348 -1.47101,-10.847458 z M 19.771841,87.615252 c -0.692559,-1.730675 -1.206635,-1.216599 -1.310736,1.310735 -0.0942,2.287004 0.418556,3.56836 1.139461,2.847458 0.720902,-0.720905 0.797978,-2.592091 0.171281,-4.158193 z M 49.212967,41.216697 c 7.394006,-6.845547 11.36321,-11.333031 8.820451,-9.97219 -12.611022,6.749215 -37.574096,40.1815 -37.574096,50.321842 0,1.48482 3.444749,-4.185975 7.654997,-12.601764 C 33.423646,58.351862 39.888763,49.849264 49.212967,41.216697 Z M 361.06949,71.080754 c 0,-0.965161 -1.48026,-3.649907 -3.28949,-5.966101 -3.05031,-3.905059 -3.10387,-3.777463 -0.73652,1.754836 2.55438,5.969334 4.02601,7.508691 4.02601,4.211265 z M 214.62881,44.632201 c 5.8764,-5.966102 10.19622,-10.847458 9.59961,-10.847458 -0.59661,0 -5.8927,4.881356 -11.7691,10.847458 -5.87639,5.966102 -10.19621,10.847458 -9.5996,10.847458 0.59661,0 5.8927,-4.881356 11.76909,-10.847458 z m -33.62712,8.018803 c 0,-0.362539 -3.66101,-4.023556 -8.13559,-8.135593 l -8.13559,-7.47643 7.47643,8.135593 c 6.9589,7.572434 8.79475,9.133097 8.79475,7.47643 z m 169.22034,0.01475 c 0,-0.35445 -4.14915,-4.503602 -9.22034,-9.220339 l -9.22033,-8.575929 8.57589,9.220339 c 7.97548,8.574824 9.86478,10.217275 9.86478,8.575887 z M 329.61907,33.79645 c -0.73349,-1.186803 -3.47583,-3.204868 -6.09413,-4.484586 -4.10122,-2.004524 -4.00939,-1.712358 0.6632,2.109583 6.07399,4.968224 7.38907,5.543324 5.43093,2.375003 z M 69.330288,25.525767 c -0.667958,-0.667958 -2.418536,-0.0014 -3.890176,1.481294 -2.126681,2.142625 -1.877484,2.391821 1.214471,1.21447 2.139598,-0.814711 3.343666,-2.027806 2.675705,-2.695764 z M 313.34068,24.022032 c -2.98305,-1.705266 -6.88814,-3.091044 -8.67797,-3.079509 -1.78983,0.0115 -0.32542,1.362059 3.25424,3.001157 8.61865,3.94642 12.28279,3.999352 5.42373,0.07836 z M 79.035593,22.937286 c 1.789831,-1.156678 2.277966,-2.103049 1.084746,-2.103049 -1.19322,0 -3.633898,0.946371 -5.423729,2.103049 -1.78983,1.156677 -2.277966,2.103048 -1.084746,2.103048 1.193221,0 3.633899,-0.946371 5.423729,-2.103048 z M 91.464972,19.45706 c -0.720904,-0.720904 -2.592091,-0.797978 -4.158192,-0.171276 -1.730675,0.692559 -1.216599,1.206634 1.310735,1.310735 2.287004,0.0942 3.56836,-0.418555 2.847457,-1.139459 z m 167.050858,0 c -0.72093,-0.720904 -2.59211,-0.797978 -4.1582,-0.171275 -1.73067,0.692559 -1.21661,1.206634 1.31074,1.310734 2.28699,0.0942 3.56836,-0.418555 2.84746,-1.139459 z M 112.15017,17.07113 c -2.66834,-0.514955 -7.5497,-0.528281 -10.84746,-0.02961 -3.297762,0.498667 -1.11457,0.919994 4.85153,0.936282 5.9661,0.01629 8.66427,-0.391713 5.99593,-0.906668 z"
     id="path818"
     inkscape:connector-curvature="0" /><path
     style="opacity:1;fill:#e89ac7;fill-opacity:1;fill-rule:nonzero;stroke:none;stroke-width:3.25423717;stroke-miterlimit:4;stroke-dasharray:none;stroke-dashoffset:0;stroke-opacity:1;paint-order:fill markers stroke"
     d="m 186.60648,341.31017 c -2.22061,-2.68475 -39.35804,-40.51526 -82.52763,-84.0678 C 60.909259,213.68983 22.379962,173.33845 18.458185,167.57263 8.2724813,152.59757 2.6178604,135.13558 1.4510196,115.05294 -0.46490153,82.077805 9.5278628,55.327623 32.312523,32.438084 53.198646,11.455823 77.822197,1.2008707 107.09038,1.2954059 c 30.0638,0.097105 50.85208,8.0735614 71.95125,27.6076731 l 13.03615,12.069172 9.10602,-8.811127 c 12.97816,-12.557849 28.51064,-21.723596 45.66877,-26.9492166 19.29674,-5.87694387 50.61051,-4.81000883 68.36218,2.3292631 65.4531,26.3235905 90.02385,107.2434395 49.30619,162.3821095 -8.95274,12.12351 -169.51729,176.26824 -172.42366,176.26824 -0.79932,0 -3.27018,-2.19661 -5.4908,-4.88135 z m 5.24267,-19.5642 c 0,-0.3196 -10.49491,-10.81452 -23.32203,-23.32203 l -23.32204,-22.74089 22.7409,23.32203 c 21.12223,21.66201 23.90317,24.30772 23.90317,22.74089 z M 316.59492,198.6661 c 8.28854,-8.35254 14.58193,-15.18644 13.98532,-15.18644 -0.59661,0 -7.86627,6.8339 -16.15482,15.18644 -8.28854,8.35254 -14.58193,15.18644 -13.98532,15.18644 0.59661,0 7.86627,-6.8339 16.15482,-15.18644 z M 61.679661,189.3642 c 0,-0.34315 -5.125424,-5.46858 -11.38983,-11.38983 L 38.9,167.20847 49.665902,178.5983 c 10.003868,10.58364 12.013759,12.38476 12.013759,10.7659 z m -41.90782,-62.6981 c -0.692559,-1.73068 -1.206635,-1.2166 -1.310736,1.31073 -0.0942,2.28701 0.418556,3.56836 1.139461,2.84746 0.720902,-0.7209 0.797978,-2.59209 0.171281,-4.15819 z M 366.84529,91.818642 c -0.60184,-1.491526 -1.09427,-0.271187 -1.09427,2.711864 0,2.983051 0.49243,4.20339 1.09427,2.711865 0.60183,-1.491526 0.60183,-3.932204 0,-5.423729 z M 24.731862,73.920337 c 0,-1.193221 -0.946371,-0.705085 -2.103048,1.084745 -1.156678,1.789831 -2.103049,4.230509 -2.103049,5.423729 0,1.193221 0.946371,0.705085 2.103049,-1.084746 1.156677,-1.78983 2.103048,-4.230508 2.103048,-5.423728 z m 6.364364,-10.977808 c 2.506362,-4.247962 3.57212,-7.114869 2.368358,-6.3709 -2.350885,1.452926 -9.393048,14.09447 -7.851539,14.09447 0.50939,0 2.976822,-3.475605 5.483181,-7.72357 z m 24.07496,-28.524745 c 0,-1.629041 -1.947828,0.09333 -10.938125,9.672044 l -9.672044,10.305085 10.305085,-9.672045 c 5.667796,-5.319623 10.305084,-9.956911 10.305084,-10.305084 z m 125.830504,18.18581 c 0,-0.388614 -2.68474,-3.07336 -5.9661,-5.966102 l -5.9661,-5.259528 5.25953,5.966101 c 4.91582,5.576221 6.67267,6.961005 6.67267,5.259529 z m 28.48012,-3.090037 c 2.69857,-3.440935 2.62184,-3.51767 -0.8191,-0.819102 -2.08813,1.637627 -3.79661,3.346102 -3.79661,3.79661 0,1.785565 1.78156,0.636318 4.61571,-2.977508 z m 138.57073,0.808016 c 0,-0.450508 -1.70847,-2.158982 -3.79661,-3.79661 -3.44094,-2.698568 -3.51768,-2.621833 -0.81911,0.819102 2.83416,3.613827 4.61572,4.763074 4.61572,2.977508 z M 108.8209,17.287568 c -0.7209,-0.720904 -2.59209,-0.797978 -4.15819,-0.171275 -1.73067,0.692558 -1.2166,1.206633 1.31074,1.310734 2.287,0.0942 3.56836,-0.418555 2.84745,-1.139459 z"
     id="path820"
     inkscape:connector-curvature="0" /><path
     style="opacity:1;fill:#e89ac7;fill-opacity:1;fill-rule:nonzero;stroke:none;stroke-width:3.25423717;stroke-miterlimit:4;stroke-dasharray:none;stroke-dashoffset:0;stroke-opacity:1;paint-order:fill markers stroke"
     d="M 106.15424,259.6932 C 52.146672,204.5982 19.027076,169.1247 14.585083,161.61598 -3.1709387,131.60128 -3.6304789,88.755255 13.460106,56.726821 16.691324,50.671391 25.229034,39.741458 32.432796,32.438084 53.713384,10.863231 77.059145,1.314138 108.63758,1.26812 c 29.38056,-0.042815 53.23859,9.905936 75.13606,31.331582 l 8.19567,8.019081 12.17478,-11.127058 C 225.63697,9.8484388 247.88237,1.3119713 277.69268,1.26812 c 29.74759,-0.043759 54.45517,10.185562 75.50312,31.259453 35.59576,35.639647 41.37396,92.823797 13.6054,134.646287 -6.83099,10.28821 -171.63255,179.12579 -174.64824,178.92539 -0.7637,-0.0507 -39.46313,-38.93347 -85.99872,-86.40605 z m 210.44068,-61.0271 c 4.66058,-4.77288 7.98568,-8.67797 7.38907,-8.67797 -0.59661,0 -4.89798,3.90509 -9.55857,8.67797 -4.66058,4.77288 -7.98568,8.67797 -7.38907,8.67797 0.59661,0 4.89798,-3.90509 9.55857,-8.67797 z M 51.916949,38.123726 c 2.159699,-2.38644 3.43859,-4.338983 2.84198,-4.338983 -0.59661,0 -2.851773,1.952543 -5.011471,4.338983 -2.159699,2.386441 -3.43859,4.338984 -2.84198,4.338984 0.59661,0 2.851773,-1.952543 5.011471,-4.338984 z"
     id="path822"
     inkscape:connector-curvature="0" /><path
     style="opacity:1;fill:#e89ac7;fill-opacity:1;fill-rule:nonzero;stroke:none;stroke-width:3.25423717;stroke-miterlimit:4;stroke-dasharray:none;stroke-dashoffset:0;stroke-opacity:1;paint-order:fill markers stroke"
     d="M 110.40162,264.29322 C 66.227965,219.24915 26.038267,177.27152 21.091186,171.00961 8.2385737,154.74102 2.7820515,138.85724 1.4776714,113.91523 0.28190904,91.050173 3.2888345,76.548977 13.337901,56.7181 21.929951,39.762506 43.221597,19.938119 62.853004,10.615206 77.888344,3.4749539 81.796785,2.5770465 101.69361,1.6921411 135.17469,0.20307956 153.96512,6.5850966 179.24556,28.032033 l 13.78895,11.698005 11.8819,-10.928404 c 6.53504,-6.010624 19.08025,-14.347769 27.87821,-18.526992 14.26575,-6.7765331 18.40909,-7.705894 38.29864,-8.5904758 18.465,-0.82122553 24.90288,-0.2019926 37.41663,3.5989441 65.92341,20.0236157 96.46857,98.6509197 61.18196,157.4905197 -5.0712,8.45613 -35.12166,40.52083 -91.83757,97.99334 -46.36498,46.98351 -84.93827,85.42455 -85.71843,85.42455 -0.78017,0 -37.56057,-36.85423 -81.73423,-81.8983 z"
     id="path824"
     inkscape:connector-curvature="0" /><path
     style="opacity:1;fill:#e89ac7;fill-opacity:1;fill-rule:nonzero;stroke:none;stroke-width:3.25423717;stroke-miterlimit:4;stroke-dasharray:none;stroke-dashoffset:0;stroke-opacity:1;paint-order:fill markers stroke"
     d="M 104.82203,258.73858 C 47.502808,200.07407 17.434113,167.70443 13.47987,160.40668 -3.2977825,129.44269 -3.3328164,89.645473 13.388511,56.625439 21.929497,39.759332 43.256758,19.921422 62.853004,10.615206 77.888344,3.4749539 81.796785,2.5770465 101.69361,1.6921411 135.18528,0.2026085 154.30428,6.7133088 179.69789,28.25538 l 13.76842,11.680115 9.49651,-9.720481 c 5.66248,-5.796033 16.87553,-13.387847 27.77362,-18.80419 l 18.27712,-9.0837077 27.2822,0.043331 c 23.44305,0.037233 29.06028,0.7545491 39.91782,5.0974828 27.57188,11.0285539 50.73805,35.0438819 62.4517,64.7408949 4.01753,10.185448 4.96946,16.864102 5.03685,35.338635 0.0961,26.3646 -3.17458,38.2776 -15.92602,58.00657 -7.5888,11.74133 -172.05105,180.63749 -175.89535,180.63749 -0.8862,0 -40.06263,-39.35381 -87.05873,-87.45294 z"
     id="path826"
     inkscape:connector-curvature="0" /><path
     style="opacity:1;fill:#e89ac7;fill-opacity:1;fill-rule:nonzero;stroke:none;stroke-width:3.25423717;stroke-miterlimit:4;stroke-dasharray:none;stroke-dashoffset:0;stroke-opacity:1;paint-order:fill markers stroke"
     d="M 106.26895,260.46023 C 60.18893,213.308 19.555145,170.108 15.971652,164.46022 1.9548964,142.36905 -3.1275359,106.72281 3.9497631,80.143289 11.884102,50.345067 34.168001,24.273471 63.79782,10.12258 79.943074,2.4117757 80.42663,2.3271163 108.32373,2.3271163 c 27.00847,0 28.80085,0.2833274 42.30508,6.687309 7.75594,3.6780197 20.16063,11.7322577 27.56598,17.8983057 7.40536,6.166047 14.13801,11.210995 14.96146,11.210995 0.82344,0 6.25524,-4.45062 12.07066,-9.890271 5.81543,-5.439649 18.12007,-13.493885 27.34364,-17.898304 16.68124,-7.965589 16.92024,-8.0080347 45.08969,-8.0080347 h 28.31955 l 16.83041,8.3198507 c 40.65654,20.097898 64.6369,61.25335 61.51824,105.578453 -1.29985,18.47459 -7.1516,35.8108 -17.21717,51.00704 -6.85514,10.34936 -172.05713,178.95906 -175.34219,178.95906 -0.94505,0 -39.42011,-38.57909 -85.50013,-85.73129 z"
     id="path828"
     inkscape:connector-curvature="0" /><path
     style="opacity:1;fill:#e89ac7;fill-opacity:1;fill-rule:nonzero;stroke:none;stroke-width:3.25423717;stroke-miterlimit:4;stroke-dasharray:none;stroke-dashoffset:0;stroke-opacity:1;paint-order:fill markers stroke"
     d="M 112.05552,266.46271 C 69.137188,222.61186 29.968817,182.00782 25.014699,176.23151 6.5027572,154.64729 -0.04321768,134.08518 1.3836688,102.00208 2.2657902,82.16786 3.1780236,78.172514 10.201148,63.383808 23.435352,35.516334 46.103617,15.240094 74.942696,5.473987 86.771711,1.4681927 92.344805,0.91443533 113.04534,1.6880071 c 22.64202,0.846124 25.29877,1.4290981 40.13559,8.8070059 8.73871,4.345497 20.92744,12.33966 27.08607,17.764808 6.15863,5.425148 11.71538,9.863905 12.34833,9.863905 0.63295,0 6.51952,-4.698025 13.08126,-10.440057 6.56174,-5.74203 18.57787,-13.784715 26.70253,-17.8726329 14.63877,-7.3655098 15.03731,-7.4328092 44.16583,-7.4582486 l 29.39377,-0.025671 17.2503,8.5153505 c 59.16557,29.206189 79.65905,102.407073 43.81861,156.516253 -6.86436,10.36329 -171.96202,178.8328 -175.25354,178.8328 -0.92687,0 -36.80023,-35.87796 -79.71857,-79.72881 z"
     id="path830"
     inkscape:connector-curvature="0" /><path
     style="opacity:1;fill:#e89ac7;fill-opacity:1;fill-rule:nonzero;stroke:none;stroke-width:3.25423717;stroke-miterlimit:4;stroke-dasharray:none;stroke-dashoffset:0;stroke-opacity:1;paint-order:fill markers stroke"
     d="M 143.98552,299.00508 C 44.392506,198.46487 19.628116,171.99421 12.548911,158.51246 3.252538,140.8083 0.21270161,125.2206 1.2832179,100.74413 2.0726175,82.695166 3.1148801,78.305476 10.106535,63.583037 23.81241,34.722359 49.719204,12.057477 77.641448,4.4992776 88.005707,1.6938031 97.299375,0.9501518 114.04305,1.5865304 c 19.51938,0.7418752 24.34546,1.7291774 36.60081,7.4876692 7.76421,3.6482134 19.47947,10.9896964 26.0339,16.3144054 6.55443,5.324711 12.98153,10.329633 14.28244,11.122048 1.30091,0.792416 7.99441,-3.318847 14.87445,-9.136139 6.88004,-5.817292 18.99533,-13.832757 26.92285,-17.8121454 14.28323,-7.1697736 14.68856,-7.2352523 44.78657,-7.2352523 h 30.37288 l 16.27119,8.5883227 c 58.84507,31.059847 78.42638,102.647431 42.80905,156.506281 -6.43519,9.73098 -171.83272,178.7698 -174.9189,178.7698 -0.74298,0 -22.38472,-21.2339 -48.09277,-47.18644 z"
     id="path832"
     inkscape:connector-curvature="0" /></svg>