<?xml version="1.0" encoding="UTF-8" standalone="no"?>
<svg
   xmlns:dc="http://purl.org/dc/elements/1.1/"
   xmlns:cc="http://creativecommons.org/ns#"
   xmlns:rdf="http://www.w3.org/1999/02/22-rdf-syntax-ns#"
   xmlns:svg="http://www.w3.org/2000/svg"
   xmlns="http://www.w3.org/2000/svg"
   xmlns:sodipodi="http://sodipodi.sourceforge.net/DTD/sodipodi-0.dtd"
   xmlns:inkscape="http://www.inkscape.org/namespaces/inkscape"
   height="347.21036"
   id="Layer_1"
   version="1.1"
   viewBox="0 0 385 347.21036"
   width="385"
   xml:space="preserve"
   sodipodi:docname="iconfinder_211754_heart_icon.svg"
   inkscape:version="0.92.4 (5da689c313, 2019-01-14)"><metadata
     id="metadata9"><rdf:RDF><cc:Work
         rdf:about=""><dc:format>image/svg+xml</dc:format><dc:type
           rdf:resource="http://purl.org/dc/dcmitype/StillImage" /><dc:title></dc:title></cc:Work></rdf:RDF></metadata><defs
     id="defs7" /><sodipodi:namedview
     pagecolor="#ffffff"
     bordercolor="#666666"
     borderopacity="1"
     objecttolerance="10"
     gridtolerance="10"
     guidetolerance="10"
     inkscape:pageopacity="0"
     inkscape:pageshadow="2"
     inkscape:window-width="2560"
     inkscape:window-height="1017"
     id="namedview5"
     showgrid="false"
     fit-margin-top="0"
     fit-margin-left="0"
     fit-margin-right="0"
     fit-margin-bottom="0"
     inkscape:zoom="0.4609375"
     inkscape:cx="192.5"
     inkscape:cy="173.71036"
     inkscape:window-x="-8"
     inkscape:window-y="107"
     inkscape:window-maximized="1"
     inkscape:current-layer="Layer_1" /><path
     d="m 277.3,15.9 c 50.7,0 91.9,41.3 91.9,92.3 0,26.2 -10.9,49.8 -28.3,66.6 L 192.5,324.6 41.5,172.1 C 25.7,155.5 15.9,133 15.9,108.2 c 0,-51 41.1,-92.3 91.9,-92.3 38.2,0 70.9,23.4 84.8,56.8 13.7,-33.3 46.5,-56.8 84.7,-56.8 m 0,-15.4 c -33.8,0 -64.8,15.8 -84.8,41.8 -20,-26 -51,-41.8 -84.8,-41.8 C 48.6,0.5 0.5,48.8 0.5,108.2 c 0,27.9 10.6,54.4 29.9,74.6 l 151.2,152.7 10.9,11 10.9,-11 148.3,-149.8 c 21,-20.3 32.8,-47.9 32.8,-77.5 C 384.5,48.8 336.4,0.5 277.3,0.5 Z"
     id="path2"
     style="fill:#e89ac7;fill-opacity:1;stroke:#e89ac7;stroke-opacity:1"
     inkscape:connector-curvature="0" /></svg>